<svg width="64" height="64" viewBox="0 0 64 64" fill="none" xmlns="http://www.w3.org/2000/svg">
  <defs>
    <!-- Gold gradient for visited -->
    <linearGradient id="goldGradient" x1="0%" y1="0%" x2="100%" y2="100%">
      <stop offset="0%" style="stop-color:#FFE55C"/>
      <stop offset="30%" style="stop-color:#FFD700"/>
      <stop offset="50%" style="stop-color:#DAA520"/>
      <stop offset="70%" style="stop-color:#B8860B"/>
      <stop offset="100%" style="stop-color:#996515"/>
    </linearGradient>
    <!-- Darker gold for monument -->
    <linearGradient id="darkGold" x1="0%" y1="0%" x2="0%" y2="100%">
      <stop offset="0%" style="stop-color:#B8860B"/>
      <stop offset="100%" style="stop-color:#8B6914"/>
    </linearGradient>
    <!-- Shadow filter -->
    <filter id="shadow" x="-20%" y="-20%" width="140%" height="140%">
      <feDropShadow dx="0" dy="2" stdDeviation="2" flood-opacity="0.3"/>
    </filter>
    <!-- Glow for visited effect -->
    <filter id="glow" x="-30%" y="-30%" width="160%" height="160%">
      <feGaussianBlur stdDeviation="2" result="coloredBlur"/>
      <feMerge>
        <feMergeNode in="coloredBlur"/>
        <feMergeNode in="SourceGraphic"/>
      </feMerge>
    </filter>
  </defs>
  
  <!-- Outer glow ring -->
  <circle cx="32" cy="32" r="30" fill="none" stroke="#FFD700" stroke-width="2" opacity="0.5"/>
  
  <!-- Main circle with gold gradient -->
  <circle cx="32" cy="32" r="28" fill="url(#goldGradient)" filter="url(#shadow)"/>
  
  <!-- Inner ring for depth -->
  <circle cx="32" cy="32" r="24" fill="none" stroke="#DAA520" stroke-width="1.5" opacity="0.6"/>
  
  <!-- Washington Monument / Obelisk silhouette -->
  <!-- Main obelisk body -->
  <path d="M32 10 L38 18 L38 48 L26 48 L26 18 Z" fill="url(#darkGold)"/>
  
  <!-- Pyramid top -->
  <path d="M32 10 L38 18 L26 18 Z" fill="#8B6914"/>
  
  <!-- Base platform -->
  <rect x="23" y="48" width="18" height="4" rx="1" fill="url(#darkGold)"/>
  
  <!-- Subtle line details on obelisk -->
  <line x1="32" y1="18" x2="32" y2="48" stroke="#DAA520" stroke-width="0.5" opacity="0.4"/>
  
  <!-- Checkmark for visited -->
  <circle cx="48" cy="48" r="10" fill="#34A853" stroke="#FFFFFF" stroke-width="2"/>
  <path d="M43 48 L46 51 L53 44" stroke="#FFFFFF" stroke-width="2.5" stroke-linecap="round" stroke-linejoin="round" fill="none"/>
  
  <!-- Highlight arc for 3D effect -->
  <path d="M14 22 A20 20 0 0 1 50 22" fill="none" stroke="rgba(255,255,255,0.35)" stroke-width="2"/>
</svg>
