<svg width="24" height="24" viewBox="0 0 24 24" fill="none" xmlns="http://www.w3.org/2000/svg">
  <circle cx="12" cy="12" r="10" fill="#FFB7D5" opacity="0.9"/>
  <path d="M12 6C12 6 10 8 10 11C10 14 12 16 12 16C12 16 14 14 14 11C14 8 12 6 12 6Z" fill="#FF69B4"/>
  <path d="M8 9C8 9 6 10 6 12C6 14 8 15 8 15C8 15 10 14 10 12C10 10 8 9 8 9Z" fill="#FF8BC7"/>
  <path d="M16 9C16 9 18 10 18 12C18 14 16 15 16 15C16 15 14 14 14 12C14 10 16 9 16 9Z" fill="#FF8BC7"/>
  <path d="M10 14C10 14 9 15 9 16C9 17 10 18 10 18C10 18 11 17 11 16C11 15 10 14 10 14Z" fill="#FFADD8"/>
  <path d="M14 14C14 14 15 15 15 16C15 17 14 18 14 18C14 18 13 17 13 16C13 15 14 14 14 14Z" fill="#FFADD8"/>
</svg>

