<svg width="96" height="112" viewBox="0 0 96 112" fill="none" xmlns="http://www.w3.org/2000/svg">
  <defs>
    <linearGradient id="badge" x1="17" y1="9" x2="80" y2="95" gradientUnits="userSpaceOnUse">
      <stop stop-color="#FFE978"/>
      <stop offset="0.45" stop-color="#D9A620"/>
      <stop offset="1" stop-color="#8E5F10"/>
    </linearGradient>
    <linearGradient id="inner" x1="27" y1="18" x2="70" y2="78" gradientUnits="userSpaceOnUse">
      <stop stop-color="#FFF8D8"/>
      <stop offset="1" stop-color="#EACB72"/>
    </linearGradient>
    <filter id="shadow" x="0" y="0" width="96" height="112" filterUnits="userSpaceOnUse" color-interpolation-filters="sRGB">
      <feDropShadow dx="0" dy="5" stdDeviation="5" flood-color="#1A100A" flood-opacity="0.35"/>
    </filter>
  </defs>
  <path d="M48 103C48 103 17 69.8 17 40.5C17 22.2 30.9 9 48 9C65.1 9 79 22.2 79 40.5C79 69.8 48 103 48 103Z" fill="url(#badge)" filter="url(#shadow)"/>
  <circle cx="48" cy="42" r="26" fill="url(#inner)" stroke="#FFF8D8" stroke-width="3"/>
  <path d="M48 20L28 32H68L48 20Z" fill="#61410F"/>
  <path d="M30 35H66V40H30V35Z" fill="#61410F"/>
  <path d="M34 42H40V65H34V42Z" fill="#7B5314"/>
  <path d="M45 42H51V65H45V42Z" fill="#7B5314"/>
  <path d="M56 42H62V65H56V42Z" fill="#7B5314"/>
  <path d="M28 66H68V73H28V66Z" fill="#61410F"/>
  <circle cx="70" cy="74" r="13" fill="#2FBF71" stroke="#FFF8D8" stroke-width="4"/>
  <path d="M63.8 74.4L68.2 78.5L76.4 68.8" stroke="white" stroke-width="4" stroke-linecap="round" stroke-linejoin="round"/>
</svg>
